:SAMPLES-PER-SECOND 30
:FULLY-SPECIFIED
:DEGREES
65
root  31.4018 38.5078 -3.9862 75.1387 -85.2373 -78.7742
RightUpLeg  -19.0209 -14.0723 7.91537
RightLeg  24.9944 -2.94899 -1.646
RightFoot  -4.17091 0.339683 -5.8921
RightToes  5.82063e-011 0 -3.6325e-017
Spine  5.21645 -3.07626 12.103
Spine1  9.56779 -2.40317 1.15385
HEad  -8.26766 4.02003 -5.50179
LeftShoulder1  9.23313 -12.8132 -49.4004
LeftArm  -12.7577 10.7482 -25.7312
LeftForeArm  29.3554 -40.4809 -7.66137
LeftHand  -0.244104 0.0205437 5.32207
RightShoulder  6.62915 9.97432 42.8539
RightArm  -6.80574 -15.3886 28.2085
RightForeArm  7.40498 4.61661 6.8186
RightHand  -1.17916 3.02217 -16.4064
LeftUpLeg  1.10692 3.80943 6.53318
LeftLeg  54.4192 2.83642 4.74915
LeftFoot  11.511 1.3027 -6.70561
LeftToes  3.81955e-011 1.3492e-010 1.36421e-011
66
root  29.7049 38.887 -4.10732 71.6282 -85.4147 -75.2514
RightUpLeg  -15.2195 -14.218 6.75685
RightLeg  23.7171 -3.08465 -0.873858
RightFoot  -6.22306 0.19711 -5.35648
RightToes  5.82063e-011 0 -3.6325e-017
Spine  5.00339 -2.42642 12.2144
Spine1  9.37588 -1.65107 1.12992
HEad  -7.59794 2.97585 -4.96709
LeftShoulder1  9.26358 -12.7866 -49.6436
LeftArm  -12.6653 12.556 -26.9566
LeftForeArm  29.8845 -40.1591 -7.53217
LeftHand  -0.244104 0.0205437 5.32207
RightShoulder  6.69016 10.0357 43.0649
RightArm  -3.92688 -11.6989 28.2009
RightForeArm  4.69004 8.3249 7.7945
RightHand  -1.30632 3.43319 -17.3193
LeftUpLeg  -5.59593 2.93402 5.93592
LeftLeg  61.3617 3.3579 7.20854
LeftFoot  10.4788 0.6598 -3.70938
LeftToes  3.81955e-011 1.3492e-010 1.36421e-011
67
root  27.9853 39.3191 -4.24194 78.495 -86.6289 -82.1871
RightUpLeg  -10.8684 -12.5113 4.5877
RightLeg  21.5466 -3.9225 0.0925917
RightFoot  -7.74459 0.0994236 -4.81783
RightToes  5.82063e-011 0 -3.6325e-017
Spine  5.00628 -1.356 11.6399
Spine1  8.91741 -0.381713 0.310046
HEad  -6.82346 1.97431 -4.72785
LeftShoulder1  9.26075 -12.7542 -49.7267
LeftArm  -11.8498 14.2772 -27.7853
LeftForeArm  29.7512 -38.5371 -7.06731
LeftHand  -0.244104 0.0205437 5.32207
RightShoulder  6.70481 10.0277 43.1918
RightArm  1.71786 -8.05519 28.3537
RightForeArm  -0.380811 13.1428 7.81992
RightHand  -1.38525 3.64232 -17.9299
LeftUpLeg  -10.9995 3.43215 4.62437
LeftLeg  63.5445 3.74779 8.76966
LeftFoot  6.21482 0.337983 -2.47146
LeftToes  3.81955e-011 1.3492e-010 1.36421e-011
68
root  26.3058 39.6086 -4.36288 100.81 -87.7346 -104.397
RightUpLeg  -6.98967 -10.8019 2.62398
RightLeg  19.6409 -4.56597 1.00736
RightFoot  -9.60311 -0.00106105 -4.20044
RightToes  5.82063e-011 0 -3.6325e-017
Spine  5.00788 -0.329869 11.4206
Spine1  8.40913 0.975757 -1.05351
HEad  -6.18691 1.33603 -4.7822
LeftShoulder1  9.19628 -12.7619 -49.3582
LeftArm  -10.1824 16.0065 -28.3886
LeftForeArm  28.4222 -35.6666 -6.35856
LeftHand  -0.244104 0.0205437 5.32207
RightShoulder  6.61677 9.97583 42.7635
RightArm  8.28721 -4.49599 29.2841
RightForeArm  -6.00266 18.2583 6.49175
RightHand  -1.36421 3.4964 -17.9399
LeftUpLeg  -15.8233 4.11216 3.25287
LeftLeg  61.9783 3.70413 8.1385
LeftFoot  3.12165 0.322644 -2.69073
LeftToes  3.81955e-011 1.3492e-010 1.36421e-011
69
root  24.648 39.806 -4.474 136.683 -88.1516 -140.207
RightUpLeg  -3.13307 -9.61874 0.881458
RightLeg  17.5675 -4.75757 1.92087
RightFoot  -11.288 -0.0747641 -3.65205
RightToes  5.82063e-011 0 -3.6325e-017
Spine  5.18495 0.442355 11.3119
Spine1  7.82895 2.05502 -2.62348
HEad  -5.90247 1.11315 -5.03813
LeftShoulder1  9.16002 -12.8136 -49.0079
LeftArm  -7.5587 17.4497 -28.4777
LeftForeArm  26.1946 -31.7991 -5.50672
LeftHand  -0.244104 0.0205437 5.32207
RightShoulder  6.50786 9.97052 42.0312
RightArm  11.561 -0.963881 30.3362
RightForeArm  -8.46532 22.9002 5.47064
RightHand  -1.27345 3.02324 -17.6844
LeftUpLeg  -19.8785 4.52446 1.8839
LeftLeg  57.4658 3.41644 6.29537
LeftFoot  1.39267 0.296317 -2.72823
LeftToes  3.81955e-011 1.3492e-010 1.36421e-011
70
root  23.0147 39.9157 -4.566 164.167 -87.7805 -167.854
RightUpLeg  0.761866 -9.02746 -0.466986
RightLeg  15.5979 -4.27995 2.69939
RightFoot  -12.6006 -0.120859 -3.23765
RightToes  5.82063e-011 0 -3.6325e-017
Spine  5.70424 0.922809 11.4948
Spine1  7.38106 2.84871 -4.2635
HEad  -6.14168 1.14993 -5.46852
LeftShoulder1  9.22528 -12.89 -49.1272
LeftArm  -3.98529 18.3159 -27.932
LeftForeArm  23.5687 -27.2032 -4.542
LeftHand  -0.244104 0.0205437 5.32207
RightShoulder  6.49178 10.0837 41.5443
RightArm  10.7114 2.73398 30.7271
RightForeArm  -6.97526 26.9165 6.12257
RightHand  -1.179 2.46495 -17.525
LeftUpLeg  -22.5713 5.18902 0.843162
LeftLeg  50.1408 3.16953 4.5038
LeftFoot  -0.432191 0.284677 -2.96905
LeftToes  3.81955e-011 1.3492e-010 1.36421e-011
71
root  21.3643 39.8548 -4.61957 167.956 -87.0668 -171.781
RightUpLeg  4.18906 -8.87677 -1.15401
RightLeg  14.613 -3.46938 3.17944
RightFoot  -14.1522 -0.173034 -3.12863
RightToes  5.82063e-011 0 -3.6325e-017
Spine  6.00272 1.19138 12.4608
Spine1  7.39392 3.47591 -5.92645
HEad  -6.87943 1.34937 -5.98325
LeftShoulder1  9.33128 -12.9711 -49.4479
LeftArm  -0.767122 18.7467 -27.2486
LeftForeArm  21.5923 -22.0095 -3.97284
LeftHand  -0.244104 0.0205437 5.32207
RightShoulder  6.54641 10.2655 41.3251
RightArm  9.91168 6.6086 30.7474
RightForeArm  -5.56758 30.3318 6.91936
RightHand  -1.1179 2.09853 -17.4197
LeftUpLeg  -23.9061 6.64811 0.344603
LeftLeg  40.1318 2.81644 2.91498
LeftFoot  -1.5945 0.329395 -3.73977
LeftToes  3.81955e-011 1.3492e-010 1.36421e-011
